<svg width="28" height="43" viewBox="0 0 28 43" fill="none" xmlns="http://www.w3.org/2000/svg">
<path d="M1.03957 41.3441V27.4086H7.90236C7.73079 29.4731 8.58856 31.5376 9.96111 33.086C11.1621 34.2903 12.5347 34.8064 14.2504 34.8064C15.4513 34.8064 16.6524 34.4623 17.3387 33.6021C18.1965 32.7419 18.5396 31.7097 18.5396 30.5054C18.5396 29.3011 18.1965 28.0967 17.3387 27.4086C15.9661 26.2043 14.4221 25.172 12.8779 24.4839C9.27496 22.9355 6.18654 21.043 3.26985 18.4623C1.55416 16.5699 0.524739 13.9892 0.696309 11.4086C0.524739 8.3118 1.72577 5.21505 3.95618 3.15053C6.01501 1.25806 8.76017 0.225781 11.5053 0.225781C14.422 0.0537382 17.3387 1.60215 19.0544 4.01075V0.569888H25.9172V12.957H19.0544C18.8828 11.2365 18.1964 9.68813 16.9954 8.48382C15.966 7.45157 14.5935 6.93545 13.221 6.93545C12.1916 6.93545 11.1622 7.27954 10.3044 7.96772C9.6181 8.48385 9.10327 9.34405 9.10327 10.3763C9.10327 11.2365 9.44636 12.0967 10.1326 12.7849C11.8483 14.1612 13.7357 15.1935 15.7945 15.8817C18.1965 16.914 20.4269 18.1183 22.6573 19.4946C24.2014 20.5269 25.5739 22.0753 26.4318 23.7957C27.4612 25.6882 27.8044 27.7527 27.8044 29.8172C27.976 33.2581 26.775 36.5269 24.373 38.9355C22.1426 41 19.2258 42.0322 16.1376 42.0322C12.8778 42.2043 9.78963 40.8279 7.90236 38.0752V41.5161H1.2111L1.03957 41.3441Z" fill="#242A30"/>
</svg>
