<svg width="17" height="25" viewBox="0 0 17 25" fill="none" xmlns="http://www.w3.org/2000/svg">
<path d="M0.497784 24.4522V16.2651H4.53057C4.42975 17.478 4.9338 18.691 5.74036 19.6006C6.4461 20.3082 7.25266 20.6114 8.26085 20.6114C8.96659 20.6114 9.67238 20.4092 10.0757 19.9038C10.5798 19.3985 10.7813 18.792 10.7813 18.0845C10.7813 17.377 10.5798 16.6694 10.0757 16.2651C9.2691 15.5576 8.36175 14.9512 7.45437 14.5469C5.33715 13.6372 3.5223 12.5254 1.80837 11.0092C0.80017 9.8974 0.195251 8.38126 0.296071 6.86514C0.195251 5.04578 0.901014 3.22644 2.21167 2.01353C3.42151 0.901707 5.03465 0.295243 6.64776 0.295243C8.3617 0.194167 10.0757 1.10386 11.0839 2.51891V0.497405H15.1166V7.77481H11.0839C10.983 6.76405 10.5797 5.85437 9.87394 5.14684C9.26902 4.54039 8.46252 4.23717 7.65596 4.23717C7.05104 4.23717 6.44617 4.43933 5.94207 4.84363C5.53879 5.14686 5.23626 5.65223 5.23626 6.25868C5.23626 6.76405 5.43788 7.26942 5.84116 7.67373C6.84935 8.48233 7.95842 9.0888 9.16825 9.4931C10.5797 10.0996 11.8904 10.8071 13.201 11.6157C14.1084 12.2221 14.9149 13.1318 15.419 14.1426C16.0239 15.2544 16.2256 16.4673 16.2256 17.6802C16.3265 19.7017 15.6207 21.6221 14.2092 23.0372C12.8986 24.2501 11.1846 24.8565 9.36984 24.8565C7.45427 24.9576 5.63959 24.149 4.53057 22.5318V24.5533H0.59858L0.497784 24.4522Z" fill="#242A30"/>
</svg>
