<svg width="37" height="37" viewBox="0 0 37 37" fill="none" xmlns="http://www.w3.org/2000/svg">
<path d="M33.0725 7.81123V5.08219C33.0725 3.56606 31.8628 2.25209 30.2497 2.25209C29.4431 2.25209 28.7374 2.55531 28.2333 3.16176C25.3095 1.24133 21.8816 0.331665 18.4537 0.331665C15.0258 0.331665 11.598 1.34241 8.67423 3.16176C8.17014 2.55531 7.36358 2.25209 6.65784 2.25209C5.14555 2.25209 3.83484 3.46501 3.83484 4.98114V7.71015C1.61681 10.8435 0.306152 14.5833 0.306152 18.4241C0.306152 28.4306 8.47254 36.6177 18.4537 36.6177C28.4348 36.6177 36.6012 28.4306 36.6012 18.4241C36.6012 14.6844 35.2906 10.9446 33.0725 7.81123ZM32.9717 25.9037C32.9717 28.1274 31.157 30.0478 28.8382 30.0478H21.3775L23.5955 24.4887H25.7128C26.5193 24.2865 27.225 23.579 27.4267 22.7704V17.2112C27.225 16.2005 26.3177 15.493 25.2087 15.3919H22.789C21.5791 15.3919 20.5709 16.4026 20.5709 17.7166H20.4701V23.8822H16.1349V17.2112C15.9333 16.2005 15.0258 15.493 13.9168 15.3919H11.4971C10.2873 15.3919 9.27913 16.4026 9.27913 17.7166H9.17833V22.265H9.27913C9.27913 23.2757 9.98481 24.2865 10.993 24.4887H12.9086L15.0258 30.0478H7.76683C5.5488 30.0478 3.63325 28.2284 3.63325 25.9037V10.0349L9.17833 7.00264H27.3259L32.7702 10.0349L32.9717 25.9037Z" fill="#242A30"/>
</svg>
