<svg width="25" height="25" viewBox="0 0 25 25" fill="none" xmlns="http://www.w3.org/2000/svg">
<path d="M12.5044 6.0805C8.95961 6.0805 6.08982 8.95337 6.08982 12.495C6.08982 16.0397 8.96274 18.9094 12.5044 18.9094C16.0492 18.9094 18.919 16.0366 18.919 12.495C18.919 8.95025 16.0461 6.0805 12.5044 6.0805ZM12.5044 16.6584C10.2034 16.6584 8.34086 14.7949 8.34086 12.495C8.34086 10.195 10.2044 8.33151 12.5044 8.33151C14.8044 8.33151 16.6679 10.195 16.6679 12.495C16.669 14.7949 14.8054 16.6584 12.5044 16.6584Z" fill="white"/>
<path d="M17.6544 0.0785264C15.3544 -0.0287634 9.65753 -0.0235552 7.35545 0.0785264C5.33253 0.173316 3.54815 0.661849 2.10961 2.10037C-0.294555 4.50449 0.0127367 7.74402 0.0127367 12.495C0.0127367 17.3574 -0.258097 20.5219 2.10961 22.8896C4.52315 25.302 7.80961 24.9864 12.5044 24.9864C17.3211 24.9864 18.9836 24.9895 20.6867 24.3302C23.0023 23.4312 24.7502 21.3615 24.9211 17.6438C25.0294 15.3428 25.0232 9.64711 24.9211 7.34507C24.7148 2.9566 22.3596 0.295189 17.6544 0.0785264ZM21.295 21.299C19.719 22.875 17.5325 22.7344 12.4742 22.7344C7.26586 22.7344 5.17732 22.8115 3.65336 21.2834C1.89815 19.5365 2.21586 16.7314 2.21586 12.4783C2.21586 6.7232 1.62524 2.57848 7.40128 2.28265C8.72836 2.23578 9.11899 2.22016 12.4596 2.22016L12.5065 2.2514C18.0575 2.2514 22.4127 1.67017 22.6742 7.44506C22.7336 8.76275 22.7471 9.15858 22.7471 12.4939C22.7461 17.6418 22.844 19.7428 21.295 21.299Z" fill="white"/>
<path d="M19.1732 7.32632C20.001 7.32632 20.6721 6.65522 20.6721 5.82738C20.6721 4.99955 20.001 4.32845 19.1732 4.32845C18.3453 4.32845 17.6742 4.99955 17.6742 5.82738C17.6742 6.65522 18.3453 7.32632 19.1732 7.32632Z" fill="white"/>
</svg>
