<svg width="40" height="41" viewBox="0 0 40 41" fill="none" xmlns="http://www.w3.org/2000/svg">
<path d="M35.5487 8.90179V5.94049C35.5487 4.29533 34.2602 2.86953 32.5422 2.86953C31.6832 2.86953 30.9315 3.19856 30.3946 3.85662C27.2807 1.77275 23.6298 0.785667 19.979 0.785667C16.3282 0.785667 12.6774 1.88243 9.56347 3.85662C9.02658 3.19856 8.16757 2.86953 7.41593 2.86953C5.80527 2.86953 4.40932 4.18568 4.40932 5.83084V8.79211C2.04702 12.1921 0.651123 16.2502 0.651123 20.4179C0.651123 31.276 9.34866 40.1599 19.979 40.1599C30.6093 40.1599 39.3069 31.276 39.3069 20.4179C39.3069 16.3599 37.911 12.3018 35.5487 8.90179ZM35.4413 28.534C35.4413 30.947 33.5085 33.0308 31.0389 33.0308H23.0929L25.4552 26.9986H27.7102C28.5692 26.7792 29.3208 26.0115 29.5356 25.134V19.1018C29.3208 18.005 28.3545 17.2373 27.1733 17.1276H24.5963C23.3077 17.1276 22.2339 18.2244 22.2339 19.6502H22.1265V26.3405H17.5094V19.1018C17.2946 18.005 16.3282 17.2373 15.147 17.1276H12.5699C11.2814 17.1276 10.2077 18.2244 10.2077 19.6502H10.1004V24.5857H10.2077C10.2077 25.6824 10.9593 26.7792 12.0331 26.9986H14.0733L16.3281 33.0308H8.59705C6.23475 33.0308 4.19462 31.0566 4.19462 28.534V11.3147L10.1004 8.02439H29.4282L35.2266 11.3147L35.4413 28.534Z" fill="#242A30"/>
</svg>
