<svg width="62" height="62" viewBox="0 0 62 62" fill="none" xmlns="http://www.w3.org/2000/svg">
<path d="M55.7895 12.8064V8.16119C55.7895 5.58054 53.7307 3.344 50.9856 3.344C49.6131 3.344 48.4121 3.86012 47.5542 4.89238C42.5787 1.62356 36.7452 0.0751953 30.9118 0.0751953C25.0785 0.0751953 19.2452 1.7956 14.2697 4.89238C13.4118 3.86012 12.0393 3.344 10.8383 3.344C8.26473 3.344 6.03424 5.40854 6.03424 7.98919V12.6343C2.2597 17.9676 0.0292969 24.3333 0.0292969 30.8709C0.0292969 47.9031 13.9264 61.8386 30.9118 61.8386C47.8972 61.8386 61.7944 47.9031 61.7944 30.8709C61.7944 24.5053 59.564 18.1397 55.7895 12.8064ZM55.6179 43.6021C55.6179 47.387 52.5297 50.6558 48.5836 50.6558H35.8874L39.6619 41.1935H43.265C44.6376 40.8494 45.8385 39.6451 46.1816 38.2687V28.8064C45.8385 27.0859 44.2944 25.8816 42.4071 25.7096H38.2894C36.2306 25.7096 34.5148 27.43 34.5148 29.6666H34.3432V40.1612H26.9659V28.8064C26.6227 27.0859 25.0785 25.8816 23.1912 25.7096H19.0735C17.0147 25.7096 15.299 27.43 15.299 29.6666H15.1275V37.4085H15.299C15.299 39.1289 16.4999 40.8494 18.2156 41.1935H21.4755L25.0784 50.6558H12.7255C8.95096 50.6558 5.69118 47.5591 5.69118 43.6021V16.5913L15.1275 11.43H46.0101L55.2749 16.5913L55.6179 43.6021Z" fill="#242A30"/>
</svg>
