<svg width="18" height="27" viewBox="0 0 18 27" fill="none" xmlns="http://www.w3.org/2000/svg">
<path d="M0.977434 26.4697V17.5858H5.27252C5.16514 18.9019 5.70197 20.2181 6.56099 21.2052C7.31263 21.9729 8.17165 22.3019 9.24542 22.3019C9.99706 22.3019 10.7487 22.0826 11.1783 21.5342C11.7151 20.9858 11.9298 20.3277 11.9298 19.56C11.9298 18.7923 11.7151 18.0245 11.1783 17.5858C10.3192 16.818 9.35287 16.16 8.38648 15.7213C6.13156 14.7342 4.19867 13.5277 2.37326 11.8826C1.29949 10.6761 0.655224 9.03096 0.762601 7.3858C0.655224 5.41161 1.40689 3.43743 2.80279 2.1213C4.09132 0.914848 5.80938 0.25677 7.52741 0.25677C9.35282 0.147092 11.1783 1.1342 12.252 2.66969V0.476138H16.5471V8.37289H12.252C12.1446 7.27612 11.7151 6.28901 10.9634 5.52127C10.3192 4.86321 9.4602 4.53418 8.60118 4.53418C7.95692 4.53418 7.31271 4.75354 6.77582 5.19225C6.34631 5.52129 6.0241 6.06967 6.0241 6.72773C6.0241 7.27612 6.23883 7.8245 6.66834 8.26321C7.74211 9.14063 8.92331 9.79871 10.2118 10.2374C11.7151 10.8955 13.111 11.6632 14.5069 12.5407C15.4733 13.1987 16.3323 14.1858 16.8692 15.2826C17.5134 16.489 17.7282 17.8052 17.7282 19.1213C17.8356 21.3148 17.084 23.3987 15.5807 24.9342C14.1848 26.2503 12.3593 26.9084 10.4265 26.9084C8.38637 27.018 6.45366 26.1406 5.27252 24.3858V26.5794H1.08479L0.977434 26.4697Z" fill="#242A30"/>
</svg>
